<svg xmlns="http://www.w3.org/2000/svg" viewBox="0 0 24 24"><defs><style>.e{fill:#009345}</style></defs><rect x="1" y="1" width="22" height="22" rx="7.656" style="fill:#f8de40"/><path d="M23 13.938a14.69 14.69 0 0 1-12.406 6.531c-5.542 0-6.563-1-9.142-2.529A7.66 7.66 0 0 0 8.656 23h6.688A7.656 7.656 0 0 0 23 15.344z" style="fill:#e7c930"/><path d="M16.666 12.583H7.334a.493.493 0 0 0-.492.544c.123 1.175.875 3.842 5.158 3.842s5.035-2.667 5.158-3.842a.493.493 0 0 0-.492-.544z" style="fill:#864e20"/><path d="M12 16.969a6.538 6.538 0 0 0 2.959-.6 1.979 1.979 0 0 0-1.209-.853c-1.344-.3-1.75.109-1.75.109s-.406-.406-1.75-.109a1.979 1.979 0 0 0-1.209.853 6.538 6.538 0 0 0 2.959.6z" style="fill:#f06880"/><path class="e" d="M8.82 8.767a1.18 1.18 0 0 0-.378-.414 1.946 1.946 0 0 0-.536-.253 4.37 4.37 0 0 0-.444-.1.094.094 0 0 1-.079-.09V6.692a.1.1 0 0 1 .036-.074.081.081 0 0 1 .069-.018.882.882 0 0 1 .375.173.579.579 0 0 1 .189.385.344.344 0 0 0 .337.3H8.5a.342.342 0 0 0 .256-.116.336.336 0 0 0 .084-.262 1.536 1.536 0 0 0-.1-.407 1.22 1.22 0 0 0-.34-.465 1.457 1.457 0 0 0-.5-.273 2.3 2.3 0 0 0-.44-.092.09.09 0 0 1-.077-.089v-.246a.341.341 0 0 0-.682 0v.248a.094.094 0 0 1-.086.091 1.848 1.848 0 0 0-.975.381 1.251 1.251 0 0 0-.415 1.024 1.365 1.365 0 0 0 .146.624 1.185 1.185 0 0 0 .364.409 1.711 1.711 0 0 0 .506.238c.123.036.253.069.385.1a.091.091 0 0 1 .075.088v1.233a.092.092 0 0 1-.034.072.088.088 0 0 1-.073.019 1.089 1.089 0 0 1-.45-.189.575.575 0 0 1-.209-.39.339.339 0 0 0-.335-.293h-.118a.342.342 0 0 0-.34.383 1.254 1.254 0 0 0 .426.853 1.934 1.934 0 0 0 1.056.385.092.092 0 0 1 .077.093v.234a.341.341 0 0 0 .682 0v-.246a.094.094 0 0 1 .088-.091 2.069 2.069 0 0 0 1.02-.358 1.208 1.208 0 0 0 .467-1.03 1.29 1.29 0 0 0-.138-.619zm-.659.611a.663.663 0 0 1-.064.306.515.515 0 0 1-.175.2.941.941 0 0 1-.287.125c-.048.013-.1.023-.148.032a.084.084 0 0 1-.07-.019.1.1 0 0 1-.034-.072V8.855a.091.091 0 0 1 .034-.07.093.093 0 0 1 .059-.021h.02l.125.028a1.062 1.062 0 0 1 .295.116.512.512 0 0 1 .181.18.577.577 0 0 1 .064.29zM6.7 6.686v1.192a2.469 2.469 0 0 1-.192-.044.9.9 0 0 1-.259-.115.479.479 0 0 1-.162-.178.651.651 0 0 1-.058-.3.556.556 0 0 1 .2-.49 1.026 1.026 0 0 1 .363-.151h.02a.087.087 0 0 1 .053.019.1.1 0 0 1 .035.067zM18.723 8.767a1.18 1.18 0 0 0-.378-.414 1.946 1.946 0 0 0-.536-.249A4.37 4.37 0 0 0 17.365 8a.093.093 0 0 1-.078-.09V6.692a.093.093 0 0 1 .036-.074.078.078 0 0 1 .068-.017.892.892 0 0 1 .376.173.582.582 0 0 1 .188.385.345.345 0 0 0 .337.3h.108a.342.342 0 0 0 .256-.116.335.335 0 0 0 .084-.262 1.536 1.536 0 0 0-.1-.407 1.22 1.22 0 0 0-.332-.463 1.457 1.457 0 0 0-.5-.273 2.3 2.3 0 0 0-.44-.092.089.089 0 0 1-.076-.089v-.249a.342.342 0 0 0-.683 0v.248a.094.094 0 0 1-.086.091 1.848 1.848 0 0 0-.975.381 1.253 1.253 0 0 0-.415 1.024 1.368 1.368 0 0 0 .146.624 1.185 1.185 0 0 0 .364.409 1.711 1.711 0 0 0 .506.238c.123.036.253.069.385.1a.091.091 0 0 1 .075.088v1.233a.092.092 0 0 1-.034.072.088.088 0 0 1-.073.019 1.089 1.089 0 0 1-.45-.189.579.579 0 0 1-.209-.39.338.338 0 0 0-.336-.293h-.117a.342.342 0 0 0-.34.383 1.258 1.258 0 0 0 .426.853 1.934 1.934 0 0 0 1.056.385.092.092 0 0 1 .077.093v.234a.342.342 0 0 0 .683 0v-.246a.093.093 0 0 1 .087-.091 2.066 2.066 0 0 0 1.02-.358 1.208 1.208 0 0 0 .467-1.03 1.29 1.29 0 0 0-.143-.619zm-.659.611a.663.663 0 0 1-.064.306.515.515 0 0 1-.175.2.93.93 0 0 1-.287.125c-.048.012-.1.023-.147.032a.086.086 0 0 1-.071-.019.094.094 0 0 1-.033-.072V8.855a.091.091 0 0 1 .033-.07.093.093 0 0 1 .059-.021h.02l.125.028a1.05 1.05 0 0 1 .295.116.5.5 0 0 1 .181.182.566.566 0 0 1 .064.288zM16.6 6.686v1.192a2.469 2.469 0 0 1-.192-.044.89.89 0 0 1-.258-.115.463.463 0 0 1-.162-.178.637.637 0 0 1-.059-.3.559.559 0 0 1 .2-.49A1.026 1.026 0 0 1 16.5 6.6h.02a.087.087 0 0 1 .053.019.1.1 0 0 1 .027.067z"/></svg>