<svg xmlns="http://www.w3.org/2000/svg" viewBox="0 0 48 48"><defs><radialGradient id="radial-gradient" cx="-118.624" cy="9.363" r="6" gradientTransform="matrix(3 0 0 2.5 379.871 -4.408)" gradientUnits="userSpaceOnUse"><stop offset="0" stop-color="#a467c8"/><stop offset=".296" stop-color="#9b5fbe"/><stop offset=".793" stop-color="#824aa4"/><stop offset="1" stop-color="#764097"/></radialGradient><style>.cls-4{fill:#522574}.cls-5{fill:#f6fafd}.cls-6{fill:#273941}.cls-7{fill:#141e21}.cls-8{fill:#415b62}.cls-9{fill:#632e86}.cls-10{fill:#ae2d4c}</style></defs><g id="_29-demon" data-name="29-demon"><circle cx="24" cy="24" r="23" style="fill:#764097"/><ellipse cx="24" cy="19" rx="18" ry="15" style="fill:url(#radial-gradient)"/><path d="M24 4c12.15 0 22 8.507 22 19h.975a23 23 0 0 0-45.95 0H2C2 12.507 11.85 4 24 4z" style="fill:#a467c8"/><path class="cls-4" d="M46 23c0 10.493-9.85 19-22 19S2 33.493 2 23h-.975c-.014.332-.025.665-.025 1a23 23 0 0 0 46 0c0-.335-.011-.668-.025-1z"/><ellipse class="cls-5" cx="35.5" cy="8.5" rx=".825" ry="1.148" transform="rotate(-45.02 35.5 8.5)"/><ellipse class="cls-5" cx="29.246" cy="4" rx=".413" ry=".574" transform="rotate(-45.02 29.246 4.001)"/><ellipse class="cls-5" cx="32.5" cy="6.5" rx="1.65" ry="2.297" transform="rotate(-45.02 32.5 6.5)"/><path class="cls-6" d="M43 11q-6 0-6-6a18.536 18.536 0 0 0 10-4c0 6.364-2 10-4 10zM5 11q6 0 6-6A18.536 18.536 0 0 1 1 1c0 6.364 2 10 4 10z"/><path class="cls-7" d="M24 38c-5.233 0-10-2.859-10-6h2c0 1.61 3.359 4 8 4s8-2.39 8-4h2c0 3.141-4.767 6-10 6z"/><path class="cls-8" d="M47 1a18.536 18.536 0 0 1-10 4 8.806 8.806 0 0 0 .228 1.987 18.765 18.765 0 0 0 9.7-3.934C46.971 2.4 47 1.722 47 1zM1 1c0 .722.029 1.4.077 2.053a18.765 18.765 0 0 0 9.7 3.934A8.806 8.806 0 0 0 11 5 18.536 18.536 0 0 1 1 1z"/><path class="cls-7" d="M43 9c-3.262 0-5.17-1.353-5.772-4.013-.073 0-.16.013-.228.013q0 6 6 6c2 0 4-3.636 4-10-.026.019-.052.034-.077.053C46.543 6.137 44.773 9 43 9zM5 9C3.227 9 1.457 6.137 1.077 1.053 1.052 1.034 1.026 1.019 1 1c0 6.364 2 10 4 10q6 0 6-6c-.068 0-.155-.011-.228-.013C10.17 7.647 8.262 9 5 9z"/><path class="cls-9" d="M39.528 19.9 39.1 19l-.466.216a4.96 4.96 0 0 1-2.534 6.316 5.034 5.034 0 0 1-5.183-.593 5.042 5.042 0 0 0 6.183 1.593 4.972 4.972 0 0 0 2.428-6.632zM11.9 25.532a4.96 4.96 0 0 1-2.539-6.316L8.9 19l-.424.9a4.972 4.972 0 0 0 2.424 6.632 5.042 5.042 0 0 0 6.183-1.593 5.034 5.034 0 0 1-5.183.593z"/><path class="cls-6" d="M36.1 25.532a5.037 5.037 0 0 1-6.674-2.413l-.425-.9L38.1 18l.424.9a4.972 4.972 0 0 1-2.424 6.632zM11.9 25.532a5.037 5.037 0 0 0 6.674-2.413l.425-.9L9.9 18l-.424.9a4.972 4.972 0 0 0 2.424 6.632z"/><path class="cls-7" d="M36.1 24.532a5.038 5.038 0 0 1-6.675-2.413l-.038-.082-.387.178.424.9a5.038 5.038 0 0 0 6.676 2.417 4.967 4.967 0 0 0 2.855-5.012 4.968 4.968 0 0 1-2.855 4.012zM11.9 24.532a4.968 4.968 0 0 1-2.854-4.012 4.967 4.967 0 0 0 2.854 5.012 5.038 5.038 0 0 0 6.675-2.413l.424-.9-.386-.178-.038.082a5.038 5.038 0 0 1-6.675 2.409z"/><path class="cls-4" d="M38.528 18.9a4.885 4.885 0 0 1 .426 1.616 4.9 4.9 0 0 0-.426-2.616L38.1 17 29 21.215l.386.822L38.1 18zM9.9 17l-.424.9a4.9 4.9 0 0 0-.426 2.616 4.885 4.885 0 0 1 .422-1.616L9.9 18l8.718 4.037.382-.822z"/><path class="cls-10" d="M34.5 24a2.5 2.5 0 0 0 .995-4.792l-1.392.644 1.729 2.593-1.664 1.11-1.9-2.852-.146.067A2.466 2.466 0 0 0 34.5 24zM11 21.5a2.5 2.5 0 1 0 4.879-.73l-.146-.067-1.9 2.852-1.664-1.11 1.731-2.593-1.392-.644A2.5 2.5 0 0 0 11 21.5z"/><path class="cls-7" d="m35.832 22.445-1.729-2.593-1.836.851 1.901 2.852 1.664-1.11zM13.832 23.555l1.901-2.852-1.836-.851-1.729 2.593 1.664 1.11z"/></g></svg>